<svg width="40" height="40" viewBox="0 0 40 40" fill="none" xmlns="http://www.w3.org/2000/svg">
<path d="M38.7941 30.4471C38.7604 28.9134 38.7082 27.3797 38.6652 25.8459C38.5793 22.803 38.4984 19.759 38.4227 16.714C38.3798 15.0637 38.4442 13.3674 38.2846 11.7232C38.1925 10.803 37.861 9.94101 36.8972 9.62199C35.6695 9.21095 34.0703 9.43181 32.7382 9.49316C32.7658 8.36432 32.8763 6.96248 32.3177 6.0361C31.6148 4.86126 29.9942 5.0453 28.8248 5.08825C24.322 5.25696 19.813 5.0453 15.301 4.90727C13.0972 4.83672 10.8934 4.79991 8.6865 4.82138C7.24389 4.84285 5.15364 4.57598 3.89212 5.45635C2.6306 6.33671 2.73496 8.30604 2.98665 9.88886C2.87001 11.7662 2.89764 13.6711 2.90684 15.5116C2.92219 18.4471 2.87001 21.4471 3.11249 24.3827C2.90633 24.4646 2.71222 24.5739 2.53545 24.7079C1.69137 25.3214 1.07135 26.5484 1.22482 27.6097C1.56245 29.9533 4.17757 29.9533 5.99465 30.0177C12.1334 30.1956 18.2538 29.9226 24.3803 30.1281C24.4657 30.1305 24.5512 30.1233 24.635 30.1066L24.6535 30.7386C24.6903 31.6588 24.7517 32.6557 25.298 33.4533C26.5503 35.2938 29.7916 34.7447 31.6547 34.6527C33.1465 34.5821 34.6412 34.4625 36.1238 34.2478C36.9617 34.1281 37.7383 33.9226 38.2723 33.1987C38.8279 32.4073 38.8156 31.3766 38.7941 30.4471ZM24.368 27.9134C19.9235 27.806 15.4545 28.033 10.9916 28.0177C9.26662 28.0177 7.53855 28.0177 5.81355 28.0177C5.27027 28.0177 4.33104 28.1619 3.83687 27.8827C3.18923 27.4993 3.27517 27.1925 3.51765 26.6803C3.61932 26.4614 3.78956 26.2816 4.00262 26.168H4.07014C10.8719 26.0361 17.7166 26.4103 24.5215 26.4747H24.5737C24.5737 26.9625 24.5737 27.4502 24.5951 27.9379C24.5244 27.9236 24.4525 27.9153 24.3803 27.9134H24.368ZM25.0801 10.1895C24.9879 10.2929 24.9056 10.4049 24.8345 10.5238C24.1528 10.3956 23.4564 10.3636 22.7658 10.4287C22.066 10.4594 21.0623 10.4287 20.5712 10.9993C20.5122 11.0608 20.4746 11.1397 20.4641 11.2243C20.4536 11.3088 20.4707 11.3945 20.5128 11.4686C20.9548 12.0821 21.8081 12.1619 22.5172 12.2662C23.1144 12.3794 23.7203 12.4409 24.3281 12.4502C24.3281 12.4778 24.3281 12.5024 24.3281 12.5269C24.3281 12.8183 24.3281 13.1128 24.3281 13.4073C23.7633 13.3705 23.1894 13.3827 22.6277 13.3827C21.9954 13.3827 21.317 13.3398 20.786 13.7048C20.6756 13.7734 20.5846 13.8689 20.5214 13.9824C20.4582 14.096 20.4251 14.2237 20.4251 14.3536C20.4251 14.4835 20.4582 14.6112 20.5214 14.7247C20.5846 14.8383 20.6756 14.9338 20.786 15.0024C21.3109 15.3674 22.0138 15.3398 22.6277 15.349C23.2047 15.349 23.791 15.3797 24.368 15.349L24.3956 16.1895C23.819 16.166 23.2413 16.1855 22.6676 16.2478C22.0076 16.2876 21.3017 16.2907 20.7185 16.6189C20.6143 16.6817 20.5281 16.7703 20.4682 16.8762C20.4083 16.9821 20.3769 17.1016 20.3769 17.2232C20.3769 17.3448 20.4083 17.4644 20.4682 17.5702C20.5281 17.6761 20.6143 17.7647 20.7185 17.8275C21.3324 18.1343 21.9984 18.1343 22.6676 18.1343C23.2584 18.1767 23.8517 18.1715 24.4417 18.1189C24.4632 19.1803 24.4816 20.2386 24.5031 21.2999C23.7357 21.1097 22.8272 21.2539 22.0721 21.3214C21.7409 21.3454 21.4146 21.4146 21.1022 21.5269C18.5883 21.4993 16.0745 21.484 13.5638 21.5269C12.2664 21.5412 10.9681 21.5658 9.6687 21.6005C8.57293 21.6312 7.44954 21.5422 6.48575 22.1067C6.42981 22.1402 6.3835 22.1876 6.35136 22.2443C6.31921 22.301 6.30231 22.3651 6.30231 22.4303C6.30231 22.4955 6.31921 22.5595 6.35136 22.6162C6.3835 22.673 6.42981 22.7204 6.48575 22.7539C7.48637 23.257 8.5668 23.1189 9.6687 23.1067C10.966 23.0923 12.2644 23.0923 13.5638 23.1067C16.2628 23.1189 18.9587 23.1844 21.6516 23.303C21.7636 23.2923 21.8722 23.2589 21.9708 23.2048H22.3422C23.0175 23.2048 23.8339 23.2876 24.5092 23.0852L24.5276 24.4318C18.0236 24.3889 11.4766 24.6281 4.97561 24.4318H4.9572C4.9572 21.4594 4.75462 18.4747 4.73927 15.5024C4.73927 13.1067 4.81907 10.6465 4.65026 8.23549C4.65026 8.15573 4.65026 8.07905 4.65026 7.99929C4.65026 7.26923 4.56738 6.94101 5.40533 6.71402C6.82952 6.32445 8.72026 6.57905 10.1936 6.58211C11.8971 6.58211 13.6006 6.63426 15.3041 6.69254C18.5116 6.79991 21.7191 6.95328 24.9297 6.96862C26.5104 6.96862 28.0942 6.86432 29.675 6.87966C30.6142 6.87966 30.7431 6.91033 30.7769 7.7999C30.7984 8.35512 30.7769 8.91647 30.7769 9.47168C28.8647 9.22015 26.3017 8.89193 25.0801 10.1895ZM36.9648 31.1588C36.6578 32.895 34.6136 32.714 33.1495 32.8428C31.7567 32.9685 30.3575 33.0085 28.9598 32.9625C28.4472 32.941 27.6246 33.0238 27.1642 32.7048C26.4889 32.2355 26.5503 31.4441 26.5104 30.7386C26.3938 27.9778 26.3999 25.1956 26.3447 22.4287C26.2894 19.6619 26.2373 16.9073 26.182 14.122C26.1605 13.0024 25.8996 11.668 26.9248 11.2109C26.9718 11.2142 27.019 11.2142 27.066 11.2109C28.4441 11.2109 29.8284 11.26 31.1974 11.306C32.5295 11.3521 34.012 11.2079 35.3257 11.4195C36.4706 11.6067 36.3724 12.033 36.4092 13.122C36.4276 13.7191 36.4471 14.3152 36.4675 14.9103C36.5105 16.303 36.5555 17.6946 36.6026 19.0852C36.6885 21.8132 36.7734 24.5412 36.8573 27.2692C36.8942 28.4778 37.1643 29.9809 36.9648 31.1588Z" fill="black"/>
<path d="M31.4671 27.7203C31.3054 27.7493 31.1512 27.8104 31.0136 27.8999C30.876 27.9895 30.7578 28.1058 30.666 28.2418C30.449 28.3325 30.2519 28.4649 30.0858 28.6314C29.8638 28.8575 29.7031 29.1363 29.6187 29.4417C29.5344 29.7471 29.5293 30.0689 29.6039 30.3768C29.6743 30.6713 29.8173 30.9434 30.02 31.1685C30.2227 31.3935 30.4785 31.5643 30.7642 31.6651C31.4149 31.8798 32.1178 31.6283 32.6672 31.2755C33.72 30.5976 34.1559 29.1804 33.1951 28.2081C32.9727 27.9861 32.6971 27.8248 32.3946 27.7394C32.0921 27.6541 31.7728 27.6475 31.4671 27.7203ZM31.5162 30.0915C31.1724 30.1958 31.1755 29.9166 31.332 29.6743C31.3792 29.6039 31.4305 29.5363 31.4855 29.4719L31.553 29.4473C31.6574 29.4166 31.7894 29.3216 31.8906 29.3216C31.9246 29.3178 31.9589 29.3226 31.9905 29.3355C32.0221 29.3483 32.05 29.3688 32.0717 29.3952C32.3418 29.6897 31.7249 30.0271 31.5162 30.0915Z" fill="black"/>
<path d="M34.0057 23.6497C32.2193 23.6497 30.2456 23.4933 28.4992 23.9074C27.8086 24.073 27.8638 25.0607 28.4992 25.2509C30.2119 25.7693 32.2377 25.6313 34.0057 25.5331C35.2089 25.4626 35.2273 23.6528 34.0057 23.6497Z" fill="black"/>
<path d="M9.79413 9.80618C9.05144 10.2726 8.43756 10.9177 8.00861 11.6823C7.57966 12.447 7.34931 13.3069 7.33862 14.1835C7.33862 17.6835 10.8132 20.2755 14.1741 19.5546C17.7745 18.7847 20.049 14.5884 18.06 11.297C16.4516 8.63133 12.1883 7.89514 9.79413 9.80618ZM12.8052 17.9105C12.2488 17.8923 11.7035 17.7505 11.2088 17.4954C10.7141 17.2402 10.2825 16.8781 9.9454 16.4355C9.60826 15.9928 9.37402 15.4806 9.25972 14.9361C9.14542 14.3916 9.15393 13.8286 9.28461 13.2878C9.39755 12.7971 9.61534 12.3367 9.92305 11.9381C10.0888 11.8796 10.2331 11.7727 10.3374 11.6313C10.4896 11.427 10.6742 11.2487 10.8838 11.1037C11.1388 10.9527 11.4081 10.8273 11.6879 10.7295C12.0457 10.6311 12.4159 10.5857 12.7868 10.5945C12.6204 11.1599 12.4983 11.7373 12.4215 12.3215C12.308 13.0332 12.1146 13.8737 12.4215 14.5608C12.6579 15.0915 13.0968 15.297 13.6278 15.481C14.4381 15.7878 15.23 16.1099 16.0465 16.4013C15.6529 16.8823 15.1555 17.268 14.5915 17.5294C14.0274 17.7908 13.4115 17.9211 12.7899 17.9105H12.8052ZM16.8537 14.6313C16.8087 14.6106 16.7626 14.5921 16.7156 14.5761C16.2092 14.435 15.7058 14.3031 15.1809 14.1957C14.9189 14.1683 14.66 14.117 14.4074 14.0424C13.99 13.8645 14.1005 13.981 14.0514 13.5669C13.9286 12.6988 14.257 11.7847 14.3829 10.8921C15.3589 11.2448 16.2245 11.8829 16.5744 12.6712C16.8643 13.2811 16.9617 13.9648 16.8537 14.6313Z" fill="black"/>
<path d="M32.9222 13.9104C32.8209 13.8902 32.7183 13.8769 32.6152 13.8706C30.4175 12.892 27.2622 16.1926 27.3973 18.2939C27.609 21.2969 31.0805 22.5546 33.4409 20.9963C34.7055 20.165 35.3009 18.5975 35.169 17.1252C35.0615 15.8429 34.331 14.1988 32.9222 13.9104ZM30.3991 19.8982C30.0986 19.7917 29.8261 19.6187 29.602 19.392C29.378 19.1653 29.2082 18.8908 29.1054 18.5892C29.0026 18.2875 28.9695 17.9666 29.0086 17.6503C29.0477 17.3341 29.1579 17.0308 29.331 16.7632C29.6659 16.1878 30.1739 15.7326 30.7828 15.4626C30.4298 16.9319 31.013 18.9503 32.4618 19.4227C32.1912 19.678 31.8575 19.8566 31.495 19.9402C31.1325 20.0238 30.7542 20.0092 30.3991 19.8982ZM33.2874 17.9074C33.1314 17.8667 32.9676 17.8667 32.8117 17.9074C32.2745 18.0209 32.0198 15.889 32.5047 15.708C32.9897 15.527 33.3273 17.4442 33.315 17.7018C33.3101 17.7708 33.3008 17.8395 33.2874 17.9074Z" fill="black"/>
</svg>
