<svg width="40" height="40" viewBox="0 0 40 40" fill="none" xmlns="http://www.w3.org/2000/svg">
<path d="M18.5688 18.6013C17.1983 18.3634 15.6304 18.6013 14.246 18.6615C13.1952 18.7025 12.1472 18.7845 11.0991 18.842C10.2902 18.8857 9.24494 18.7736 8.54996 19.2275C8.4657 19.2756 8.39577 19.3446 8.34715 19.4276C8.29854 19.5107 8.27295 19.6048 8.27295 19.7006C8.27295 19.7964 8.29854 19.8905 8.34715 19.9736C8.39577 20.0566 8.4657 20.1256 8.54996 20.1737C9.24772 20.5374 10.1484 20.387 10.9157 20.387C12.0276 20.387 13.1396 20.417 14.2516 20.417C15.6415 20.417 17.2205 20.6358 18.5744 20.3487C19.4306 20.1682 19.4667 18.7462 18.5688 18.6013Z" fill="black"/>
<path d="M18.5688 21.8828C17.1983 21.6449 15.6304 21.8828 14.246 21.943C13.1952 21.984 12.1472 22.066 11.0991 22.1234C10.2902 22.1672 9.24494 22.0551 8.54996 22.509C8.4657 22.5571 8.39577 22.6261 8.34715 22.7091C8.29854 22.7921 8.27295 22.8863 8.27295 22.9821C8.27295 23.0779 8.29854 23.172 8.34715 23.2551C8.39577 23.3381 8.4657 23.4071 8.54996 23.4552C9.24772 23.8189 10.1484 23.6685 10.9157 23.6685C12.0276 23.6685 13.1396 23.6985 14.2516 23.6985C15.6415 23.6985 17.2205 23.9173 18.5744 23.6302C19.4306 23.4497 19.4667 22.0277 18.5688 21.8828Z" fill="black"/>
<path d="M18.5688 25.1642C17.1983 24.9263 15.6304 25.1642 14.246 25.2243C13.1952 25.2654 12.1472 25.3474 11.0991 25.4048C10.2902 25.4486 9.24494 25.3365 8.54996 25.7904C8.4657 25.8385 8.39577 25.9075 8.34715 25.9905C8.29854 26.0735 8.27295 26.1677 8.27295 26.2635C8.27295 26.3593 8.29854 26.4534 8.34715 26.5364C8.39577 26.6195 8.4657 26.6885 8.54996 26.7365C9.24772 27.1002 10.1484 26.9498 10.9157 26.9498C12.0276 26.9498 13.1396 26.9799 14.2516 26.9799C15.6415 26.9799 17.2205 27.1987 18.5744 26.9115C19.4306 26.7311 19.4667 25.3091 18.5688 25.1642Z" fill="black"/>
<path d="M13.6648 14.7784C13.6648 14.8085 13.6787 14.8386 13.6843 14.8687C13.6898 14.8988 13.6287 15.1667 13.6843 15.071C13.619 15.1919 13.6021 15.3323 13.637 15.4648C13.6698 15.5708 13.7359 15.6639 13.8258 15.7307C13.9157 15.7975 14.0248 15.8346 14.1374 15.8367H14.168C14.2629 15.8369 14.3562 15.8116 14.4375 15.7634C14.5189 15.7151 14.5852 15.6459 14.6294 15.5632C14.7498 15.3071 14.7932 15.0225 14.7545 14.7429C15.15 14.6532 15.501 14.4302 15.7468 14.1125C15.9926 13.7948 16.1175 13.4026 16.1 13.0037C16.1 11.8634 14.9408 11.2454 14.0178 10.8599C13.8038 10.7696 13.6009 10.7833 13.6314 10.5645C13.6704 10.2911 14.3542 10.3594 14.5488 10.4087C14.938 10.5098 15.2382 10.7614 15.6608 10.7915C16.1389 10.827 16.3947 10.3348 16.3196 9.94106C16.2056 9.33674 15.3717 8.98672 14.6989 8.8746C14.743 8.64189 14.7496 8.40381 14.7184 8.16909C14.6016 7.49914 13.4535 7.49914 13.3284 8.16909C13.2964 8.45386 13.3105 8.74183 13.3701 9.02227C12.6446 9.31759 11.9635 9.93286 11.9802 10.663C12.008 11.992 13.6481 11.9509 14.3959 12.6592C14.9686 13.2061 14.1541 13.5397 13.6148 13.2772C13.0755 13.0147 12.8781 12.4924 12.2748 12.3146C11.6716 12.1369 11.1017 12.9846 11.6076 13.4413C12.3054 14.0511 12.8614 14.628 13.6648 14.7784Z" fill="black"/>
<path d="M35.5897 31.7491C35.6342 29.5943 35.523 27.4504 35.4841 25.2984C35.4062 21.0052 35.1783 16.7174 35.1116 12.427C35.0921 11.2101 35.0727 9.76356 34.133 8.83655C33.4742 8.18574 32.5429 8.25136 31.67 8.2459C30.0465 8.2459 28.4231 8.26777 26.8024 8.31973C25.4541 8.36348 24.0697 8.34981 22.7409 8.59318C22.6881 7.30522 22.4629 6.00632 21.4149 5.26526C20.5336 4.64179 19.0519 4.82227 18.0234 4.83048C16.0135 4.84962 13.998 4.97267 11.9937 5.07385C10.3869 5.16135 8.77455 5.19964 7.17331 5.3473C5.76389 5.4895 5.00775 6.61885 4.87153 7.97244C4.72697 9.37525 4.83817 10.8464 4.88821 12.2547C4.92898 13.3485 4.96975 14.4478 5.01053 15.5525C5.0063 15.6026 5.0063 15.6529 5.01053 15.7029C5.17176 19.5313 5.20234 23.3897 5.28852 27.229C5.31354 28.4239 5.14396 29.7967 5.39138 30.9725C5.62767 32.08 6.75076 32.0663 7.72096 32.1429C11.0712 32.4566 14.4405 32.5243 17.801 32.3452C17.7593 33.4637 17.7148 34.8227 18.8657 35.1673C20.3807 35.6212 22.2739 35.4407 23.8334 35.5064C26.1574 35.5829 28.4898 35.6349 30.8138 35.572C31.9647 35.5419 33.8717 35.6403 34.8697 34.9704C35.7704 34.3579 35.573 32.6925 35.5897 31.7491ZM21.2203 29.9416C21.2008 29.7803 21.3787 29.958 21.2203 29.9416V29.9416ZM10.2396 30.4885C9.42227 30.4885 8.60219 30.4721 7.78767 30.4256C7.53966 30.3921 7.29007 30.3711 7.03987 30.3627C7.03987 30.144 6.98705 29.8978 6.97593 29.7064C6.93424 28.8861 6.89532 28.0466 6.86474 27.218C6.72296 23.3897 6.70628 19.5313 6.52003 15.692C6.51333 15.587 6.48694 15.4841 6.44219 15.3885C6.41439 13.8754 6.39215 12.3604 6.37547 10.8437C6.37547 9.87841 6.26427 8.85843 6.37547 7.89314C6.46721 7.53492 6.6062 7.03724 6.9398 6.84035C7.01829 6.84363 7.09686 6.83627 7.17331 6.81847C7.72929 6.67354 8.3937 6.72277 8.95246 6.68448C12.3952 6.43343 15.8494 6.36952 19.2993 6.49307C19.594 6.49307 20.1556 6.43838 20.428 6.59971C21.1258 7.00989 20.984 8.5549 20.984 9.29595L21.0507 13.6712C21.1035 17.546 21.0785 21.429 21.0507 25.3066C21.0368 26.7313 21.0368 28.1642 20.9423 29.5888C20.9423 29.6791 20.9256 29.8158 20.9145 29.9498C20.7644 29.9826 20.6004 30.04 20.4892 30.0564C17.1393 30.5295 13.6172 30.5049 10.2396 30.5049V30.4885ZM20.87 30.3272C20.87 30.3572 20.87 30.3764 20.8533 30.3764C20.8366 30.3764 20.845 30.3655 20.87 30.3381V30.3272ZM19.1826 33.6824C19.2604 33.625 19.3049 33.6578 19.3299 33.7207C19.2215 33.7262 19.1604 33.707 19.1826 33.6934V33.6824ZM26.655 33.7973C24.5993 33.9026 22.5394 33.9026 20.4836 33.7973C20.1611 33.7781 19.8192 33.707 19.4995 33.718H19.3994V33.6742C19.4416 33.1912 19.4285 32.7051 19.3605 32.2249C20.3196 32.1675 21.8624 32.2058 22.563 31.4948C22.8556 31.1376 23.025 30.698 23.0467 30.2397C23.3525 30.2397 23.6583 30.2178 23.9613 30.2178C24.9815 30.2178 26.0018 30.2451 27.0192 30.2479C28.3008 30.2479 29.7991 30.4584 31.0668 30.1768C31.9258 29.9854 31.9675 28.5962 31.0668 28.4294C29.7908 28.1915 28.3063 28.4294 27.0192 28.4896C25.9962 28.5333 24.976 28.6154 23.9613 28.6755C23.6833 28.6919 23.3831 28.6947 23.0856 28.7083C23.0856 28.6181 23.0856 28.5306 23.0856 28.4513C23.0856 27.9536 23.1106 27.4559 23.1162 26.9582C23.3942 26.9582 23.6722 26.9364 23.9502 26.9364C24.9704 26.9364 25.9906 26.9637 27.0081 26.9664C28.2896 26.9664 29.788 27.177 31.0557 26.8953C31.9147 26.7039 31.9564 25.3148 31.0557 25.148C29.7797 24.9101 28.2952 25.148 27.0081 25.2081C25.9851 25.2519 24.9648 25.3339 23.9502 25.3941C23.6722 25.4105 23.3942 25.4132 23.1162 25.4242C23.1162 24.8417 23.1162 24.2593 23.1162 23.6768C23.3942 23.6768 23.6722 23.6549 23.9502 23.6549C24.9704 23.6549 25.9906 23.6823 27.0081 23.685C28.2896 23.685 29.788 23.8956 31.0557 23.6139C31.9147 23.4225 31.9564 22.0334 31.0557 21.8666C29.7797 21.6287 28.2952 21.8666 27.0081 21.9267C25.9851 21.9705 24.9648 22.0525 23.9502 22.1127C23.6722 22.1291 23.3942 22.1318 23.0856 22.1455C23.0439 20.1657 22.9744 18.1886 22.8994 16.2143C22.8438 14.3384 22.816 12.4571 22.7631 10.5429C22.7631 10.2886 22.7631 10.0151 22.7631 9.72254C25.0149 9.95497 27.3945 9.61316 29.6379 9.59128C30.533 9.59128 31.7256 9.44362 32.5985 9.70066C33.6354 10.0069 33.5993 11.3414 33.6271 12.2656C33.7383 15.7904 33.6827 19.3152 33.691 22.84C33.691 26.2309 33.8356 29.7803 33.4408 33.1629C33.0211 33.2094 32.3706 33.3844 32.176 33.4008C30.3357 33.584 28.4981 33.7289 26.655 33.8082V33.7973Z" fill="black"/>
<path d="M27.0586 13.6792C27.4478 13.7804 27.748 14.0319 28.1705 14.062C28.6487 14.0976 28.9044 13.6053 28.8294 13.2116C28.7154 12.6072 27.8814 12.2572 27.2087 12.1451C27.2528 11.9124 27.2593 11.6743 27.2282 11.4396C27.1114 10.7696 25.9633 10.7696 25.8382 11.4396C25.8062 11.7244 25.8202 12.0123 25.8799 12.2928C25.1543 12.5881 24.4732 13.2034 24.4899 13.9335C24.5177 15.2625 26.1579 15.2214 26.9057 15.9297C27.4783 16.4766 26.6638 16.8102 26.1245 16.5477C25.5852 16.2852 25.3878 15.7629 24.7846 15.5851C24.1814 15.4074 23.6115 16.2551 24.1174 16.7118C24.8096 17.3325 25.36 17.9095 26.1746 18.0599C26.1746 18.09 26.1746 18.12 26.194 18.1501C26.2135 18.1802 26.1384 18.4482 26.194 18.3525C26.1287 18.4733 26.1119 18.6138 26.1468 18.7462C26.1796 18.8522 26.2457 18.9453 26.3356 19.0121C26.4255 19.0789 26.5345 19.116 26.6471 19.1181H26.6777C26.7727 19.1184 26.8659 19.093 26.9473 19.0448C27.0286 18.9966 27.095 18.9274 27.1392 18.8447C27.2596 18.5886 27.303 18.3039 27.2643 18.0243C27.6597 17.9346 28.0108 17.7116 28.2566 17.3939C28.5023 17.0763 28.6273 16.684 28.6098 16.2852C28.6098 15.1449 27.4505 14.5269 26.5276 14.1413C26.3136 14.0511 26.1106 14.0647 26.1412 13.846C26.1801 13.5507 26.864 13.63 27.0586 13.6792Z" fill="black"/>
</svg>
