<svg width="40" height="40" viewBox="0 0 40 40" fill="none" xmlns="http://www.w3.org/2000/svg">
<path d="M31.065 24.3984C31.1372 20.33 31.247 16.2554 31.1811 12.187C31.1811 11.3242 31.2188 10.6295 30.616 9.96907C29.2505 8.43019 27.3481 6.97543 25.6687 5.78544C25.6092 5.71138 25.5351 5.65021 25.4509 5.60573C25.3666 5.56126 25.2741 5.53442 25.179 5.52689C22.0209 5.19668 18.7844 5.24341 15.5981 5.22161C14.107 5.22161 12.5939 5.15619 11.1028 5.25276C9.28834 5.37425 8.92733 6.44274 8.86454 8.05638C8.60713 14.9377 8.42192 21.8159 8.44703 28.7004C8.44703 30.6193 7.91964 33.8715 10.3933 34.4696C11.4544 34.7219 12.6536 34.6534 13.7334 34.6721C15.6515 34.7095 17.5695 34.6721 19.4907 34.6939C21.4119 34.7157 23.3394 34.7188 25.2637 34.7157C26.5194 34.7157 28.246 34.9867 29.4232 34.5412C31.247 33.8497 30.9237 31.5632 30.9582 29.9994C30.9896 28.1324 31.0252 26.2654 31.065 24.3984ZM28.8455 11.0781C27.6181 11.0781 26.3875 11.0781 25.1664 11.0064C25.1476 10.212 25.135 9.41769 25.0754 8.62956C25.0392 8.22892 24.9805 7.8306 24.8996 7.43647C26.1019 8.74794 27.5208 9.86938 28.833 11.0656L28.8455 11.0781ZM28.7953 31.9495C28.6352 32.6099 28.4469 32.6099 27.7939 32.6566C27.2791 32.7064 26.736 32.6566 26.2243 32.6784C24.6442 32.7033 23.0652 32.7355 21.4873 32.775C18.3229 32.856 15.1398 32.9245 11.9755 32.775C11.1091 32.7376 10.4906 32.6504 10.3588 31.9931C10.1861 31.1177 10.2929 30.0928 10.2835 29.1894C10.2175 22.8533 10.3808 16.5171 10.409 10.1871C10.409 9.5641 10.409 8.94108 10.409 8.31805C10.4341 7.63272 10.2866 6.95985 11.1028 6.81032C12.5123 6.55488 14.1729 6.77606 15.5981 6.78852C18.2445 6.81344 20.894 6.90066 23.5403 6.86328C23.286 8.51119 23.3928 10.0968 23.5215 11.7883C23.527 12.0055 23.6165 12.2123 23.7713 12.3659C23.9261 12.5196 24.1345 12.6083 24.3533 12.6138C25.9229 12.6948 27.5271 12.7291 29.1155 12.7509C29.1155 15.5047 29.0464 18.2616 29.0025 21.0153C28.9523 24.3838 28.8874 27.744 28.8079 31.0959C28.8346 31.3746 28.8346 31.6552 28.8079 31.9339L28.7953 31.9495Z" fill="black"/>
<path d="M25.336 19.3923C23.5654 19.0808 21.6443 19.3923 19.8455 19.4266C18.5898 19.4515 17.3341 19.4453 16.1004 19.4266C15.1587 19.4079 14.2169 19.33 13.3411 19.707C12.8294 19.9281 12.8608 20.7723 13.3411 21.006C14.1887 21.4172 15.1775 21.3331 16.1004 21.3175C17.3561 21.2957 18.6118 21.277 19.8455 21.2832C21.638 21.2832 23.5811 21.5542 25.336 21.2022C26.2212 21.0153 26.2495 19.5481 25.336 19.3923Z" fill="black"/>
<path d="M25.336 23.1305C23.5654 22.819 21.6443 23.1305 19.8455 23.1648C18.5898 23.1897 17.3341 23.1835 16.1004 23.1648C15.1587 23.1461 14.2169 23.0682 13.3411 23.4451C12.8294 23.6663 12.8608 24.5105 13.3411 24.7441C14.1887 25.1553 15.1775 25.0712 16.1004 25.0557C17.3561 25.0338 18.6118 25.0152 19.8455 25.0214C21.638 25.0214 23.5811 25.2924 25.336 24.9404C26.2212 24.7535 26.2495 23.2863 25.336 23.1305Z" fill="black"/>
<path d="M25.336 27.1802C23.5654 26.8687 21.6443 27.1802 19.8455 27.2145C18.5898 27.2394 17.3341 27.2331 16.1004 27.2145C15.1587 27.1958 14.2169 27.1179 13.3411 27.4948C12.8294 27.716 12.8608 28.5602 13.3411 28.7938C14.1887 29.205 15.1775 29.1053 16.1004 29.1053C17.3561 29.0835 18.6118 29.0648 19.8455 29.0711C21.638 29.0711 23.5811 29.3421 25.336 28.9901C26.2212 28.8032 26.2495 27.3359 25.336 27.1802Z" fill="black"/>
</svg>
