<svg width="17" height="17" viewBox="0 0 17 17" fill="none" xmlns="http://www.w3.org/2000/svg">
<path d="M5.16667 4.33333V1V4.33333ZM11.8333 4.33333V1V4.33333ZM4.33333 7.66667H12.6667H4.33333ZM2.66667 16H14.3333C14.7754 16 15.1993 15.8244 15.5118 15.5118C15.8244 15.1993 16 14.7754 16 14.3333V4.33333C16 3.89131 15.8244 3.46738 15.5118 3.15482C15.1993 2.84226 14.7754 2.66667 14.3333 2.66667H2.66667C2.22464 2.66667 1.80072 2.84226 1.48816 3.15482C1.17559 3.46738 1 3.89131 1 4.33333V14.3333C1 14.7754 1.17559 15.1993 1.48816 15.5118C1.80072 15.8244 2.22464 16 2.66667 16Z" stroke="black" stroke-opacity="0.5" stroke-width="2" stroke-linecap="round" stroke-linejoin="round"/>
</svg>
