<svg width="48" height="48" viewBox="0 0 48 48" fill="none" xmlns="http://www.w3.org/2000/svg">
<path d="M14.4375 23.8639C14.45 24.6832 14.0748 25.1804 13.2321 25.1507C12.4503 25.1241 12.1376 24.6019 12.1501 23.8624C12.1501 23.5653 12.1501 23.2682 12.1501 22.9712H12.1329C12.1329 22.8023 12.1407 22.6319 12.1329 22.4615C12.086 21.6312 12.197 20.8354 13.2446 20.8479C14.2468 20.8573 14.4313 21.6297 14.4188 22.4646C14.4094 22.9258 14.4297 23.3949 14.4375 23.8639Z" fill="black"/>
<path d="M35.7061 29.4926C35.5497 29.835 35.4277 30.1665 35.3027 30.4839C35.3167 30.4636 35.9609 29.5036 36.1767 27.7071C36.0526 28.3104 35.8955 28.9065 35.7061 29.4926ZM24.9459 17.2815C25.2148 17.3034 25.4853 17.3316 25.7574 17.366V17.355C25.4853 17.3191 25.207 17.2972 24.9459 17.2769V17.2815Z" fill="black"/>
<path d="M13.2321 25.146C12.4503 25.1194 12.1376 24.5972 12.1501 23.8576C12.1501 23.5606 12.1501 23.2635 12.1501 22.9664H12.1329C12.1329 22.7976 12.1407 22.6271 12.1329 22.4567C12.086 21.6265 12.197 20.8307 13.2446 20.8432C14.2468 20.8525 14.4313 21.6249 14.4188 22.4598C14.4188 22.9289 14.4313 23.3979 14.4391 23.867C14.45 24.6785 14.0717 25.1757 13.2321 25.146Z" fill="black"/>
<path d="M20.4211 19.4282C20.4211 19.4282 20.0615 20.1114 20.4211 20.7775C20.7807 21.4436 22.1629 20.2146 26.9097 21.1543C27.593 21.1543 27.6102 19.7706 27.4742 19.4344C27.3381 19.0983 21.9753 17.874 20.4211 19.4282Z" fill="black"/>
<path d="M45.3952 34.5208C44.7385 34.2394 44.0349 34.0346 43.5189 33.4607C43.7316 33.1934 43.963 32.9401 44.1444 32.6587C44.8808 31.5564 44.787 30.268 43.9442 29.6708C43.0718 29.0532 41.5989 29.294 40.8172 30.1821C39.987 31.1202 39.8259 31.0936 39.2349 29.9522C39.0672 29.6543 38.949 29.3311 38.8847 28.9953H38.8722C38.8722 28.9953 40.7171 23.1384 36.9772 19.2265C34.4302 16.5685 29.8898 15.4396 27.2505 14.994C28.0457 14.3298 28.618 13.4376 28.8902 12.4379C29.1624 11.4382 29.1214 10.379 28.7728 9.40331C28.4241 8.42762 27.7846 7.58234 26.9404 6.98154C26.0963 6.38073 25.0882 6.05331 24.0521 6.04344C23.016 6.03358 22.0019 6.34174 21.1464 6.92636C20.291 7.51098 19.6355 8.34392 19.2683 9.31279C18.9011 10.2817 18.84 11.3399 19.0931 12.3446C19.3462 13.3493 19.9014 14.2522 20.6838 14.9315C20.5274 14.9628 20.3867 14.9972 20.2382 15.0316C19.1437 15.2958 18.5183 15.2911 17.9836 14.0935C17.3754 12.7269 16.0698 12.0609 15.3819 12.7348C14.3031 13.787 13.5182 13.7448 12.2158 13.1757C11.1901 12.7269 10.4959 13.8542 10.0378 14.7298C9.09966 16.5779 8.22253 18.4619 7.30787 20.3288C6.65745 21.6578 5.74435 22.4051 4.10422 22.3129C2.20611 22.205 1.33836 23.4417 1.8168 25.3195C2.07978 26.2615 2.21028 27.2356 2.20455 28.2136C2.17484 29.3847 2.71426 29.9976 3.95725 30.0726C6.09458 30.2039 6.07738 30.2524 6.52611 32.3116C6.64631 32.8928 6.83144 33.4587 7.07803 33.9986C7.47673 34.8413 8.13185 35.5621 9.07777 35.6075C10.2973 35.67 10.5146 36.3892 10.5725 37.3367C10.6038 37.8464 10.6085 38.3577 10.6194 38.869C10.6647 41.1908 10.6632 41.1923 12.9021 41.6254C16.4373 42.3103 17.4582 41.5504 17.8038 37.9824C17.8254 37.9186 17.8548 37.8577 17.8913 37.8011C21.1747 39.0081 24.4425 38.772 27.632 37.2804C28.148 40.6545 28.148 40.6545 31.0984 40.6435C34.5756 40.6326 34.5662 40.631 34.8789 37.1334C34.9337 36.5174 34.6866 35.806 35.1917 35.3026C36.05 34.4379 36.824 33.5123 37.3008 32.5899C39.6461 33.578 41.4332 35.1431 43.2578 36.6644C43.5143 36.8786 43.8473 37.0021 44.1444 37.1678C45.0528 37.6713 45.8564 37.5024 46.2911 36.5768C46.7257 35.6512 46.3473 34.9273 45.3952 34.5208ZM24.0156 8.19117C24.5919 8.19025 25.1556 8.36029 25.6352 8.67979C26.1148 8.99929 26.4889 9.45389 26.7101 9.98606C26.9313 10.5182 26.9896 11.104 26.8778 11.6694C26.7659 12.2347 26.4888 12.7542 26.0817 13.162C25.6745 13.5699 25.1555 13.8478 24.5903 13.9605C24.0251 14.0733 23.4392 14.0159 22.9067 13.7956C22.3742 13.5752 21.919 13.2019 21.5987 12.7228C21.2784 12.2437 21.1075 11.6803 21.1075 11.104C21.1075 10.3323 21.4137 9.59211 21.959 9.04598C22.5042 8.49985 23.2439 8.19242 24.0156 8.19117ZM36.1767 27.7007C35.9609 29.4972 35.3167 30.4572 35.3027 30.4776C34.9509 31.3688 34.621 32.1505 33.9283 32.754C32.5212 33.9955 32.0068 35.5152 32.0709 37.2882C32.0943 37.9731 31.9286 38.2373 31.1734 38.2576C30.4479 38.2748 30.2072 38.0622 30.1853 37.3711C30.1638 36.6044 30.0896 35.8402 29.9632 35.0837C29.7459 33.825 28.7578 33.4045 27.7118 34.1534C24.3737 36.5471 20.9167 36.7738 17.2925 34.8507C16.0417 34.1847 15.2928 34.6631 15.2333 36.1187C15.2021 36.9271 15.077 37.7463 15.1677 38.5406C15.3053 39.7305 14.475 39.6007 13.7949 39.6726C12.7286 39.7867 13.2383 38.9534 13.1945 38.5344C13.1117 37.7338 13.2133 36.913 13.1273 36.1125C12.9334 34.291 12.369 33.6624 10.5741 33.2981C9.60468 33.1027 9.0809 32.5586 8.90891 31.6252C8.8323 31.2062 8.79478 30.7809 8.72442 30.3619C8.39764 28.4434 8.56807 27.3818 5.76937 27.5569C5.16898 27.5944 4.85002 27.3818 4.86409 26.6907C4.87504 26.1482 4.70774 25.5963 4.59829 24.9161C6.86383 25.2288 8.08963 23.9952 9.06683 22.2941C10.2285 20.2725 11.1463 18.1273 12.1657 16.0088C13.0225 16.7608 12.9756 18.354 14.4563 18.2118C15.6336 18.1007 15.6414 16.9078 16.1027 16.1401C16.3763 16.3543 16.4529 16.6779 16.5717 16.9891C16.961 18.0679 17.6505 18.3697 18.77 17.9929C20.7097 17.3446 22.76 17.0931 24.7989 17.2533L24.9334 17.2643H24.9459C25.207 17.283 25.4775 17.3065 25.7574 17.3378C29.5505 17.7662 34.8664 19.4329 35.8765 23.5793C36.2253 24.9236 36.327 26.3201 36.1767 27.7007Z" fill="black"/>
</svg>
