<svg width="48" height="48" viewBox="0 0 48 48" fill="none" xmlns="http://www.w3.org/2000/svg">
<path d="M32.171 6.78486C26.9899 4.41324 20.8745 3.97905 15.7044 6.52216C7.5371 10.5357 3.67512 19.1939 5.07848 28.0492C6.54413 37.335 15.5102 44.6578 25.0589 43.5523C27.1511 43.3115 32.0757 41.8119 34.7102 40.1481C38.3953 37.8664 41.1281 34.3353 42.4049 30.2055C45.076 21.27 40.7377 10.7072 32.171 6.78486ZM40.4556 26.5314C40.0598 31.0484 37.6342 34.7189 33.9554 37.3022C31.2733 39.1885 26.3487 40.8304 24.7951 40.9508C17.9432 41.4981 10.8715 36.8826 8.61802 30.4901C5.89924 22.8061 8.29924 14.0639 15.3673 9.74027C19.4565 7.2373 23.934 6.96 28.5105 8.26257C36.546 10.5539 41.1664 18.3365 40.4556 26.5314Z" fill="black"/>
<path d="M32.9734 25.8636C31.8449 29.2934 27.9683 31.1688 24.5863 31.4023C20.1893 31.7015 17.0785 29.3225 14.0959 26.5167C13.4986 25.9548 12.436 26.5167 12.6815 27.334C14.1289 32.2086 19.9182 34.5766 24.7035 34.2957C29.1994 34.0293 34.7835 31.3767 35.7985 26.6335C36.1869 24.8055 33.5597 24.0758 32.9734 25.8636Z" fill="black"/>
<path d="M18.9252 18.9823C19.3827 18.9762 19.8206 18.7961 20.149 18.4788C20.3925 18.2381 20.5586 17.9308 20.6262 17.5958C20.6938 17.2609 20.6599 16.9135 20.5287 16.5979C20.3975 16.2822 20.175 16.0125 19.8894 15.8232C19.6039 15.6338 19.2683 15.5332 18.9252 15.5343C18.4678 15.5411 18.0302 15.7212 17.7014 16.0378C17.4597 16.2792 17.2951 16.5864 17.2286 16.9207C17.162 17.255 17.1963 17.6015 17.3272 17.9165C17.4581 18.2314 17.6797 18.5007 17.9641 18.6904C18.2485 18.88 18.5829 18.9816 18.9252 18.9823Z" fill="black"/>
<path d="M28.7524 18.851C29.2503 18.8443 29.7266 18.647 30.0824 18.3C30.4317 17.9506 30.6278 17.4777 30.6278 16.9847C30.6278 16.4917 30.4317 16.0188 30.0824 15.6694C29.9091 15.4957 29.703 15.3579 29.476 15.2639C29.249 15.1699 29.0056 15.1215 28.7597 15.1215C28.5138 15.1215 28.2704 15.1699 28.0434 15.2639C27.8164 15.3579 27.6103 15.4957 27.4369 15.6694C27.0877 16.0188 26.8916 16.4917 26.8916 16.9847C26.8916 17.4777 27.0877 17.9506 27.4369 18.3C27.7901 18.642 28.2599 18.8388 28.7524 18.851Z" fill="black"/>
</svg>
