<svg xmlns="http://www.w3.org/2000/svg" width="37" height="37" fill="none" viewBox="0 0 37 37">
  <path stroke="#151719" d="M34.646 23.988a.5.5 0 0 1 0 .839l-15.219 9.872a2.5 2.5 0 0 1-2.725-.003l-15.143-9.87a.5.5 0 0 1 0-.838l16.232-10.58a.5.5 0 0 1 .545 0l16.31 10.58Z"/>
  <path fill="#4D49FF" d="M34.918 17.305a1 1 0 0 1 0 1.678l-14.127 9.165a5 5 0 0 1-5.452-.006l-14.053-9.16a1 1 0 0 1 0-1.675l14.053-9.16a5 5 0 0 1 5.452-.006l14.127 9.164Z"/>
  <path fill="#8D8BF9" d="M34.918 11.934a1 1 0 0 1 0 1.678l-14.127 9.164a5 5 0 0 1-5.452-.006L1.286 13.61a1 1 0 0 1 0-1.675l14.053-9.16a5 5 0 0 1 5.452-.006l14.127 9.165Z"/>
</svg>
