<svg xmlns="http://www.w3.org/2000/svg" width="41" height="28" fill="none" viewBox="0 0 41 28">
  <g clip-path="url(#a)">
    <path fill="#4D49FF" d="M13.682 16.264a13.664 13.664 0 0 0 4.647 7.892 13.304 13.304 0 0 0 8.529 3.1c3.56 0 6.974-1.436 9.492-3.991a13.73 13.73 0 0 0 3.932-9.635c0-1.79-.346-3.562-1.02-5.216a13.642 13.642 0 0 0-2.91-4.422 13.413 13.413 0 0 0-4.356-2.954A13.252 13.252 0 0 0 26.858 0a13.312 13.312 0 0 0-8.552 3.121 13.675 13.675 0 0 0-4.637 7.932"/>
    <path fill="#8D8BF9" d="M13.429 27.26c7.416 0 13.428-6.102 13.428-13.63C26.857 6.102 20.845 0 13.43 0 6.012 0 0 6.102 0 13.63c0 7.528 6.012 13.63 13.429 13.63Z"/>
    <path stroke="#000" stroke-linecap="round" stroke-linejoin="round" stroke-width="1.5" d="M24.07 13.63h12.34m-5.36-5.446 5.365 5.446-5.365 5.442M18.57 13.63h2.922m-8.746 0h2.925m-8.351 0h2.921"/>
  </g>
  <defs>
    <clipPath id="a">
      <path fill="#fff" d="M0 0h41v28H0z"/>
    </clipPath>
  </defs>
</svg>
