<svg xmlns="http://www.w3.org/2000/svg" width="36" height="31" fill="none" viewBox="0 0 36 31">
  <path fill="#4D49FF" d="M32.069 8.552H3.207A3.207 3.207 0 0 0 0 11.759v16.034A3.207 3.207 0 0 0 3.207 31h28.862a3.207 3.207 0 0 0 3.207-3.207V11.76a3.207 3.207 0 0 0-3.207-3.207Z"/>
  <path stroke="#000" stroke-linecap="round" stroke-linejoin="round" stroke-width="1.603" d="m15.178 9.048 11.905-4.547 1.979 4.456M7.695 8.899l11.981-6.377 1.915 3.704"/>
  <path stroke="#151719" stroke-linecap="round" stroke-linejoin="round" stroke-width="1.603" d="M29.747 21.38a1.603 1.603 0 1 0 0-3.208 1.603 1.603 0 0 0 0 3.207Z"/>
</svg>
