<svg xmlns="http://www.w3.org/2000/svg" width="245" height="1035" fill="none" viewBox="0 0 245 1035">
  <path stroke="#020303" stroke-dasharray="4.89 4.89" stroke-miterlimit="10" d="M125.607 943v-96"/>
  <g filter="url(#a)">
    <path fill="#fff" d="M155.82 939H97.355c-5.868 0-10.624 4.775-10.624 10.665v58.695c0 5.89 4.756 10.66 10.624 10.66h58.465c5.867 0 10.624-4.77 10.624-10.66v-58.695c0-5.89-4.757-10.665-10.624-10.665Z"/>
  </g>
  <path fill="#1EB9FC" d="M125.607 882c3.303 0 5.981-2.686 5.981-6s-2.678-6-5.981-6-5.981 2.686-5.981 6 2.678 6 5.981 6Z"/>
  <path stroke="#020303" stroke-dasharray="5 5" d="M92.21 1c-109.657 0-118.13 176.5 0 176.5m66.296 178c109.658 0 118.131-176.5 0-176.5M91.431 355c-109.657 0-118.13 176.5 0 176.5m67.075 180c109.658 0 118.131-176.5 0-176.5"/>
  <path fill="#1EB9FC" d="M236.262 234c3.303 0 5.981-2.686 5.981-6s-2.678-6-5.981-6-5.981 2.686-5.981 6 2.678 6 5.981 6ZM5.981 442c3.303 0 5.981-2.686 5.981-6s-2.678-6-5.981-6S0 432.686 0 436s2.678 6 5.981 6Zm179.44 272c3.304 0 5.981-2.686 5.981-6s-2.677-6-5.981-6c-3.303 0-5.981 2.686-5.981 6s2.678 6 5.981 6Z"/>
  <path fill="#4D49FF" fill-rule="evenodd" d="M129.689 962.303c-2.847-1.19-6.75-1.589-11.09-1.439-1.411.048-2.599 1.387-2.599 3.137v29.074c0 1.693 1.121 3.023 2.505 3.143 5.356.464 9.891.14 13.221-1.093 3.264-1.21 5.169-3.195 5.837-6.055.686-2.933-.191-5.823-2.06-8.237-2.05 3.235-5.168 5.476-9.003 5.476-2.15 0-3.918-.887-5.134-2.359-1.186-1.435-1.741-3.296-1.741-5.094 0-1.797.555-3.659 1.741-5.094 1.216-1.472 2.984-2.359 5.134-2.359 2.49 0 5.133.899 7.499 2.412.399-1.844.514-3.888.267-5.994-.303-2.6-1.808-4.361-4.577-5.518Zm7.725 14.341c.896-2.864 1.203-6.109.82-9.388-.552-4.722-3.471-7.554-7.128-9.084-3.579-1.496-8.105-1.878-12.631-1.723-3.742.129-6.475 3.609-6.475 7.552v29.074c0 3.836 2.584 7.235 6.192 7.545 5.584.48 10.738.2 14.806-1.308 4.134-1.532 7.336-4.419 8.439-9.139 1.231-5.269-.823-10.04-3.844-13.336a10.761 10.761 0 0 0-.179-.193Zm-4.968 1.293c-1.944-1.352-4.1-2.117-5.946-2.117-1.1 0-1.77.424-2.179.919-.439.531-.696 1.292-.696 2.117s.257 1.586.696 2.117c.409.496 1.079.919 2.179.919 2.394 0 4.482-1.434 5.946-3.955Z" clip-rule="evenodd"/>
  <defs>
    <filter id="a" width="103.714" height="104.02" x="74.731" y="930" color-interpolation-filters="sRGB" filterUnits="userSpaceOnUse">
      <feFlood flood-opacity="0" result="BackgroundImageFix"/>
      <feColorMatrix in="SourceAlpha" result="hardAlpha" values="0 0 0 0 0 0 0 0 0 0 0 0 0 0 0 0 0 0 127 0"/>
      <feOffset dy="3"/>
      <feGaussianBlur stdDeviation="6"/>
      <feColorMatrix values="0 0 0 0 0 0 0 0 0 0 0 0 0 0 0 0 0 0 0.1 0"/>
      <feBlend in2="BackgroundImageFix" result="effect1_dropShadow_2249_4326"/>
      <feColorMatrix in="SourceAlpha" result="hardAlpha" values="0 0 0 0 0 0 0 0 0 0 0 0 0 0 0 0 0 0 127 0"/>
      <feOffset/>
      <feGaussianBlur stdDeviation=".5"/>
      <feColorMatrix values="0 0 0 0 0 0 0 0 0 0 0 0 0 0 0 0 0 0 0.4 0"/>
      <feBlend in2="effect1_dropShadow_2249_4326" result="effect2_dropShadow_2249_4326"/>
      <feBlend in="SourceGraphic" in2="effect2_dropShadow_2249_4326" result="shape"/>
    </filter>
  </defs>
</svg>
