<svg width="43" height="43" viewBox="0 0 43 43" fill="none" xmlns="http://www.w3.org/2000/svg">
<rect width="43" height="43" rx="21.5" fill="#4D49FF" fill-opacity="0.15"/>
<path d="M26.5 18.5V16.5C26.5 15.3954 25.6046 14.5 24.5 14.5H14.5C13.3954 14.5 12.5 15.3954 12.5 16.5V22.5C12.5 23.6046 13.3954 24.5 14.5 24.5H16.5M18.5 28.5H28.5C29.6046 28.5 30.5 27.6046 30.5 26.5V20.5C30.5 19.3954 29.6046 18.5 28.5 18.5H18.5C17.3954 18.5 16.5 19.3954 16.5 20.5V26.5C16.5 27.6046 17.3954 28.5 18.5 28.5ZM25.5 23.5C25.5 24.6046 24.6046 25.5 23.5 25.5C22.3954 25.5 21.5 24.6046 21.5 23.5C21.5 22.3954 22.3954 21.5 23.5 21.5C24.6046 21.5 25.5 22.3954 25.5 23.5Z" stroke="#4D49FF" stroke-width="2" stroke-linecap="round" stroke-linejoin="round"/>
</svg>
