<svg width="43" height="43" viewBox="0 0 43 43" fill="none" xmlns="http://www.w3.org/2000/svg">
<rect width="43" height="43" rx="21.5" fill="#4D49FF" fill-opacity="0.15"/>
<path d="M27.5 18.5V21.5M27.5 21.5V24.5M27.5 21.5H30.5M27.5 21.5H24.5M22.5 16.5C22.5 18.7091 20.7091 20.5 18.5 20.5C16.2909 20.5 14.5 18.7091 14.5 16.5C14.5 14.2909 16.2909 12.5 18.5 12.5C20.7091 12.5 22.5 14.2909 22.5 16.5ZM12.5 29.5C12.5 26.1863 15.1863 23.5 18.5 23.5C21.8137 23.5 24.5 26.1863 24.5 29.5V30.5H12.5V29.5Z" stroke="#4D49FF" stroke-width="2" stroke-linecap="round" stroke-linejoin="round"/>
</svg>
