<svg width="17" height="17" viewBox="0 0 17 17" fill="none" xmlns="http://www.w3.org/2000/svg">
<path d="M8.36719 16.3281C9.45573 16.3281 10.4792 16.1198 11.4375 15.7031C12.401 15.2865 13.25 14.7109 13.9844 13.9766C14.7188 13.2422 15.2943 12.3958 15.7109 11.4375C16.1276 10.474 16.3359 9.44792 16.3359 8.35938C16.3359 7.27083 16.1276 6.2474 15.7109 5.28906C15.2943 4.32552 14.7188 3.47656 13.9844 2.74219C13.25 2.00781 12.401 1.43229 11.4375 1.01562C10.474 0.598958 9.44792 0.390625 8.35938 0.390625C7.27083 0.390625 6.24479 0.598958 5.28125 1.01562C4.32292 1.43229 3.47656 2.00781 2.74219 2.74219C2.01302 3.47656 1.4401 4.32552 1.02344 5.28906C0.606771 6.2474 0.398438 7.27083 0.398438 8.35938C0.398438 9.44792 0.606771 10.474 1.02344 11.4375C1.4401 12.3958 2.01562 13.2422 2.75 13.9766C3.48438 14.7109 4.33073 15.2865 5.28906 15.7031C6.2526 16.1198 7.27865 16.3281 8.36719 16.3281ZM8.36719 15C7.44531 15 6.58333 14.8281 5.78125 14.4844C4.97917 14.1406 4.27344 13.6667 3.66406 13.0625C3.0599 12.4531 2.58594 11.7474 2.24219 10.9453C1.90365 10.1432 1.73438 9.28125 1.73438 8.35938C1.73438 7.4375 1.90365 6.57552 2.24219 5.77344C2.58594 4.97135 3.0599 4.26562 3.66406 3.65625C4.26823 3.04688 4.97135 2.57292 5.77344 2.23438C6.57552 1.89062 7.4375 1.71875 8.35938 1.71875C9.28125 1.71875 10.1432 1.89062 10.9453 2.23438C11.7474 2.57292 12.4531 3.04688 13.0625 3.65625C13.6719 4.26562 14.1484 4.97135 14.4922 5.77344C14.8359 6.57552 15.0078 7.4375 15.0078 8.35938C15.0078 9.28125 14.8359 10.1432 14.4922 10.9453C14.1536 11.7474 13.6797 12.4531 13.0703 13.0625C12.4661 13.6667 11.7604 14.1406 10.9531 14.4844C10.151 14.8281 9.28906 15 8.36719 15ZM8.21094 9.97656C8.40365 9.97656 8.55469 9.92188 8.66406 9.8125C8.77865 9.70312 8.83594 9.57292 8.83594 9.42188C8.83594 9.40625 8.83594 9.39062 8.83594 9.375C8.83594 9.35417 8.83594 9.33854 8.83594 9.32812C8.83594 9.10938 8.90104 8.92188 9.03125 8.76562C9.16146 8.60417 9.36458 8.43229 9.64062 8.25C10.0156 8 10.3255 7.73958 10.5703 7.46875C10.8151 7.19792 10.9375 6.82812 10.9375 6.35938C10.9375 5.92708 10.8203 5.5625 10.5859 5.26562C10.3568 4.96875 10.0547 4.74479 9.67969 4.59375C9.30469 4.4375 8.89583 4.35938 8.45312 4.35938C7.78125 4.35938 7.23177 4.4974 6.80469 4.77344C6.38281 5.04427 6.11719 5.35938 6.00781 5.71875C5.98698 5.78125 5.97135 5.84375 5.96094 5.90625C5.95052 5.96875 5.94531 6.03385 5.94531 6.10156C5.94531 6.27865 6.0026 6.41406 6.11719 6.50781C6.23177 6.59635 6.35417 6.64062 6.48438 6.64062C6.61458 6.64062 6.72396 6.61198 6.8125 6.55469C6.90625 6.4974 6.98698 6.42188 7.05469 6.32812L7.19531 6.14062C7.28906 5.98958 7.39583 5.86198 7.51562 5.75781C7.63542 5.64844 7.76823 5.5651 7.91406 5.50781C8.0651 5.45052 8.22656 5.42188 8.39844 5.42188C8.75781 5.42188 9.04427 5.51562 9.25781 5.70312C9.47135 5.88542 9.57812 6.125 9.57812 6.42188C9.57812 6.6875 9.49479 6.90625 9.32812 7.07812C9.16146 7.24479 8.90625 7.44792 8.5625 7.6875C8.28125 7.88021 8.04688 8.09375 7.85938 8.32812C7.67708 8.5625 7.58594 8.8724 7.58594 9.25781C7.58594 9.27344 7.58594 9.29167 7.58594 9.3125C7.58594 9.32812 7.58594 9.34375 7.58594 9.35938C7.58594 9.77083 7.79427 9.97656 8.21094 9.97656ZM8.1875 12.3047C8.41667 12.3047 8.61458 12.2266 8.78125 12.0703C8.94792 11.9141 9.03125 11.7214 9.03125 11.4922C9.03125 11.263 8.94792 11.0703 8.78125 10.9141C8.61458 10.7578 8.41667 10.6797 8.1875 10.6797C7.95833 10.6797 7.76042 10.7604 7.59375 10.9219C7.43229 11.0781 7.35156 11.2682 7.35156 11.4922C7.35156 11.7161 7.4349 11.9089 7.60156 12.0703C7.76823 12.2266 7.96354 12.3047 8.1875 12.3047Z" fill="#2C3242"/>
</svg>
