<svg width="43" height="43" viewBox="0 0 43 43" fill="none" xmlns="http://www.w3.org/2000/svg">
<rect width="43" height="43" rx="21.5" fill="#4D49FF" fill-opacity="0.15"/>
<path d="M21.5 15.5V13.5M21.5 15.5C20.3954 15.5 19.5 16.3954 19.5 17.5C19.5 18.6046 20.3954 19.5 21.5 19.5M21.5 15.5C22.6046 15.5 23.5 16.3954 23.5 17.5C23.5 18.6046 22.6046 19.5 21.5 19.5M15.5 27.5C16.6046 27.5 17.5 26.6046 17.5 25.5C17.5 24.3954 16.6046 23.5 15.5 23.5M15.5 27.5C14.3954 27.5 13.5 26.6046 13.5 25.5C13.5 24.3954 14.3954 23.5 15.5 23.5M15.5 27.5V29.5M15.5 23.5V13.5M21.5 19.5V29.5M27.5 27.5C28.6046 27.5 29.5 26.6046 29.5 25.5C29.5 24.3954 28.6046 23.5 27.5 23.5M27.5 27.5C26.3954 27.5 25.5 26.6046 25.5 25.5C25.5 24.3954 26.3954 23.5 27.5 23.5M27.5 27.5V29.5M27.5 23.5V13.5" stroke="#4D49FF" stroke-width="2" stroke-linecap="round" stroke-linejoin="round"/>
</svg>
