<svg width="43" height="43" viewBox="0 0 43 43" fill="none" xmlns="http://www.w3.org/2000/svg">
<rect width="43" height="43" rx="21.5" fill="#4D49FF" fill-opacity="0.03"/>
<rect width="43" height="43" rx="21.5" fill="black" fill-opacity="0.05"/>
<path d="M13.5 25.5L18.086 20.914C18.4611 20.5391 18.9697 20.3284 19.5 20.3284C20.0303 20.3284 20.5389 20.5391 20.914 20.914L25.5 25.5M23.5 23.5L25.086 21.914C25.4611 21.5391 25.9697 21.3284 26.5 21.3284C27.0303 21.3284 27.5389 21.5391 27.914 21.914L29.5 23.5M23.5 17.5H23.51M15.5 29.5H27.5C28.0304 29.5 28.5391 29.2893 28.9142 28.9142C29.2893 28.5391 29.5 28.0304 29.5 27.5V15.5C29.5 14.9696 29.2893 14.4609 28.9142 14.0858C28.5391 13.7107 28.0304 13.5 27.5 13.5H15.5C14.9696 13.5 14.4609 13.7107 14.0858 14.0858C13.7107 14.4609 13.5 14.9696 13.5 15.5V27.5C13.5 28.0304 13.7107 28.5391 14.0858 28.9142C14.4609 29.2893 14.9696 29.5 15.5 29.5Z" stroke="black" stroke-opacity="0.45" stroke-width="2" stroke-linecap="round" stroke-linejoin="round"/>
</svg>
